<?xml version="1.0" encoding="iso-8859-1"?>
<!-- Uploaded to: SVG Repo, www.svgrepo.com, Generator: SVG Repo Mixer Tools -->
<svg height="800px" width="800px" version="1.1" id="Layer_1" xmlns="http://www.w3.org/2000/svg" xmlns:xlink="http://www.w3.org/1999/xlink" 
	 viewBox="0 0 496.2 496.2" xml:space="preserve">
<path style="fill:#25B7D3;" d="M496.2,248.1C496.2,111.1,385.1,0,248.1,0S0,111.1,0,248.1s111.1,248.1,248.1,248.1
	S496.2,385.1,496.2,248.1z"/>
<path style="fill:#3A3A38;" d="M133.6,63.6l14.7-3.3c0,0,3.3-0.3,4.9-1.9l18.6,2.2l0.3,1.4l8.9,1.6l-0.4,10.1l-10,0.4l-0.4,1.1h-3.8
	C166.3,75.3,141.3,70.6,133.6,63.6z"/>
<g>
	<path style="fill:#EDC92F;" d="M180,65.7v7.4c0,0,11.9,3.3,36.1-6.2c0,0,15.9-7.8,26.2,2.6c1.8,1.8,4,4.6,4,13.2l-0.8,25
		l-10.1,288.1c0,0-2.5,45.6,38.2,48.1c0,0,26.3,1.6,35.8-25.1c0,0,4.1-13.2,4.5-41.5c0,0,1.3-85.9,26.6-95.2c0,0,22.5-5.1,22-5.8
		c-0.1-0.2-7-14.2-21.5-28.7c-15.3-15.3-28.6-23.5-28.6-23.5c-0.5,0.7-6,21.2-6.8,22.3c-16.9,24.6-24.2,59.1-24.2,99.1l-0.9,51.3
		c0,0,0.7,14.1-7.3,14.3c0,0-8.8,1.3-8-10.8l-4.4-318.2c0,0,0.7-13.5-10-23.4c0,0-7.9-8.2-22.2-6c0,0-10.3,0.4-18.4,5.5
		C210.3,58.1,199.1,66.7,180,65.7z"/>
	<ellipse style="fill:#EDC92F;" cx="262.3" cy="246.2" rx="5.6" ry="8.5"/>
	<ellipse style="fill:#EDC92F;" cx="262.1" cy="225.4" rx="4.9" ry="7.5"/>
	<ellipse style="fill:#EDC92F;" cx="262.8" cy="268.9" rx="6.2" ry="9.3"/>
	<ellipse style="fill:#EDC92F;" cx="263.4" cy="293.4" rx="6.7" ry="10.2"/>
	<ellipse style="fill:#EDC92F;" cx="263.8" cy="319" rx="6.6" ry="9.9"/>
	<ellipse style="fill:#EDC92F;" cx="264.5" cy="347.8" rx="6.9" ry="10.5"/>
	<ellipse style="fill:#EDC92F;" cx="265.6" cy="377.4" rx="8" ry="12.2"/>
	<ellipse style="fill:#EDC92F;" cx="261.9" cy="204.3" rx="4.9" ry="7.5"/>
	<ellipse style="fill:#EDC92F;" cx="262.7" cy="181.8" rx="4.9" ry="7.5"/>
</g>
<g>
	<path style="fill:#FCE37A;" d="M291.6,297.1c0,0-1-31,19.3-43.6L291.6,297.1z"/>
	<path style="fill:#FCE37A;" d="M273.6,440.6c0,0,30.1,0.5,34.7-29.8c0,0-7.2,12.4-15.9,19.4C283.6,437.3,273.6,440.6,273.6,440.6z"
		/>
	<path style="fill:#FCE37A;" d="M235,53.9c0,0,15.2,0,22.9,18.5c0,0-3.5-5-10.9-11C239.5,55.5,235,53.9,235,53.9z"/>
</g>
<path style="fill:#7A7A7A;" d="M143.3,62.9c0,0-8,1.3-1.7,3.2l7.2,2.1L143.3,62.9z"/>
</svg>